PathFileType	4	(X/Y/Z)	path1_09_0-604.trc
DataRate	CameraRate	NumFrames	NumMarkers	Units	OrigDataRate	OrigDataStartFrame	OrigNumFrames
30	30	7	22	m	30	377	604
Frame#	Time	Hip			RHip			RKnee			RAnkle			RBigToe			RSmallToe			RHeel			LHip			LKnee			LAnkle			LBigToe			LSmallToe			LHeel			Neck			Head			Nose			RShoulder			RElbow			RWrist			LShoulder			LElbow			LWrist		
		X1	Y1	Z1	X2	Y2	Z2	X3	Y3	Z3	X4	Y4	Z4	X5	Y5	Z5	X6	Y6	Z6	X7	Y7	Z7	X8	Y8	Z8	X9	Y9	Z9	X10	Y10	Z10	X11	Y11	Z11	X12	Y12	Z12	X13	Y13	Z13	X14	Y14	Z14	X15	Y15	Z15	X16	Y16	Z16	X17	Y17	Z17	X18	Y18	Z18	X19	Y19	Z19	X20	Y20	Z20	X21	Y21	Z21	X22	Y22	Z22
378	12.6	1.719725261223886	0.8222148535707449	0.7626238293514392	1.7153057776056115	0.8046814528419813	0.6784722298859593	1.5520409914075752	0.49082083831008133	0.6807670248017514	1.4538985567815268	0.1279812663460436	0.6869119933272577	1.2642839887373023	0.08848655085660834	0.6841511006892111	1.3046891226620572	0.06884588682269509	0.629871080862297	1.4831579460540159	0.04177013833202987	0.7142238505553744	1.7278888034565645	0.7928993355290773	0.8557798705240721	1.831939317743286	0.43129669077957467	0.8463164689379136	1.9722047806755603	0.10572669724192493	0.8263922102899113	1.8124753988584341	0.015319253947095327	0.8486645334261007	1.8690684090329903	0.02040045868083245	0.8911089774059266	2.0393266937777486	0.03674654515121022	0.8242732775493632	1.6629426768978401	1.4232327790431591	0.7873685625788169	1.5907312206272446	1.6578436159165737	0.7775620159894954	1.5181188802218046	1.5419419792629419	0.7747254323867053	1.7363143926122846	1.347592710308982	0.6150256242283155	1.794275179846384	1.0818254269902747	0.5735950629684557	1.8006038448435193	0.8312817850180575	0.5387706523130541	1.6856339273845018	1.3347950110184932	0.9783843565273411	1.6052677923391157	1.0588820728480444	0.9970958347548455	1.4804218708895602	0.8587290110469584	0.9976168100031694
379	12.633333333333333	1.6833372156363209	0.8199418043254645	0.757188533527955	1.6802349211756016	0.8024035322983841	0.6739465834298205	1.523270042472814	0.48581071328762826	0.6797546752613882	1.4246009646239153	0.12404537539304418	0.6897173047962905	1.2382575566906522	0.08040681696827688	0.6901721417627803	1.274870549852949	0.06404842673524515	0.6348643648053378	1.456249857841716	0.041429218881798936	0.717222695374167	1.6923290051315665	0.7903970408096431	0.8505134514686759	1.8026850798863574	0.430760494146336	0.8428061444973582	1.964481464452863	0.11122324146575664	0.8268704548639269	1.815047536370659	0.011843959955290414	0.8468523266613428	1.8708511352248167	0.01966099384485544	0.8900063054703936	2.035060904047884	0.051998255680905714	0.824588828522938	1.629894991316019	1.4206646629454631	0.7831905801833818	1.558936753988671	1.6554521373700972	0.7733585172428241	1.4846945253554569	1.5388706546115356	0.7695847192302935	1.7017361174622787	1.343453313778496	0.6089453723000573	1.7650167813873632	1.0788182453800845	0.5724411151216299	1.7749339311513872	0.8272665758604386	0.5394287298343915	1.6450181487505227	1.330643078403113	0.970348519325268	1.5732996023600627	1.0563461069798583	0.9931466404665235	1.451182681829665	0.854759210816775	0.995005858866023
380	12.666666666666666	1.6458164062997591	0.8194507436551572	0.7514985118855901	1.6433024451510612	0.8019255686133969	0.668144794769288	1.493368705314763	0.48233618266409395	0.678846678887177	1.4067727504576055	0.12006710984385258	0.6927049933054794	1.2232147175847796	0.06867772925468696	0.6949987226333723	1.2573923469323955	0.05649914994131884	0.6392522876375576	1.4411324338041973	0.04168100440045032	0.7192516368492861	1.6555718926077478	0.789727764345805	0.844924935836522	1.7630823475156783	0.43223091897429367	0.8395346775459341	1.9502096582988653	0.12193741201748576	0.8276799972799858	1.816653740955814	0.010160930241360453	0.846047996382086	1.8686680296255729	0.020770492317223416	0.8893774443367253	2.023541279790086	0.07534973796294979	0.8256506515953496	1.5960439831504036	1.4200863154433998	0.7783112467864046	1.5265436709148752	1.6547448019422046	0.7686148070061405	1.4491984566230687	1.537510033952755	0.7643068310793826	1.6661654933335135	1.3406884667086072	0.6022374356555789	1.7328453197807068	1.076683915240093	0.570027396465556	1.7438425683324765	0.8240119550199156	0.5381488548142894	1.603763834599051	1.3277393203175363	0.9600194156963188	1.543597302123271	1.0554788258190713	0.9890298416742713	1.4257438028966218	0.8508316529845428	0.9933249755748659
381	12.7	1.6081488924625318	0.8210482913050801	0.746385836052071	1.6056161538143918	0.8034222482922749	0.6617367867519377	1.4639611995742448	0.4804156711928895	0.6777764624781043	1.3971117563891384	0.11660640947585302	0.6953829461061896	1.214999318043904	0.05698125489509613	0.6984642381734462	1.2484082616174628	0.04848410897727798	0.6426871044732178	1.4334536360720527	0.04213808868684488	0.7200919092237293	1.6182148315710114	0.7911115850465722	0.8396176844199679	1.7125275678975773	0.43563053361628007	0.8366915014834567	1.9267538665388413	0.1391346485052434	0.8286149917833061	1.8148692827431667	0.01115108396626902	0.8462934635838714	1.8612064466629588	0.024315566779251854	0.8886891926385005	2.002420091386264	0.10583774304877948	0.8269749244105715	1.5616466905331305	1.4214913027273361	0.7729844908909473	1.4938992280198362	1.6558392651670495	0.7635633937851731	1.4120330296462416	1.5380001356743807	0.758960384408799	1.6305374653798181	1.340105997000554	0.5958919388476613	1.6976810558894788	1.0756850488286687	0.5662906833200232	1.7069697036571614	0.8219241391453359	0.5347192190607123	1.5638554273217677	1.3269234898957878	0.9493444419323982	1.5162021230092089	1.0563658076135605	0.9848604544708315	1.4043616467583266	0.8474726472418762	0.9926972810070183
382	12.733333333333333	1.5714312464618403	0.8245814212372561	0.7425899971151817	1.5684834952991045	0.8066117610071583	0.6555929065409886	1.4373381901526856	0.47932218670546467	0.6761113290866158	1.3927460423874434	0.1140194692257246	0.6973502561600963	1.2103587397688138	0.048112313128185716	0.7008273316727756	1.2448254728272856	0.04162733723958704	0.645014398995241	1.42979450427592	0.042746778577546274	0.7195236052572354	1.5809441582846355	0.7944533322773578	0.835236640463964	1.6526353326602983	0.4406752020601156	0.834475877935046	1.8922073528930898	0.16228422229950387	0.8294113702148967	1.8056162225322048	0.015111596060409696	0.8472089414715792	1.846232255380261	0.03041863624693608	0.8874783781034953	1.9697473841977824	0.14086184267426768	0.8281004325706821	1.527062233718837	1.4245043766673497	0.7674224713888693	1.4611775287151336	1.6585017202358214	0.7583663227605447	1.3749565547943774	1.5402010912402835	0.7531004645139412	1.5954450662288024	1.3419409500382156	0.5905233679025726	1.6596099527961798	1.0757657555509854	0.5614429882777942	1.6641207009817083	0.8211119473690509	0.5293491190365702	1.5267028521385955	1.3284525581282016	0.9399105947636848	1.4910206717415058	1.0587377098145527	0.9807418658061295	1.3869411970977532	0.8449335965953136	0.9930801463596951
383	12.766666666666667	1.5364230227823599	0.8294633503050477	0.7404483314474382	1.5329444802371064	0.8108899806250769	0.6505967877189611	1.4155078122866236	0.4779652282072077	0.6734673976106371	1.3915442267334086	0.11244137012191445	0.6985508408999264	1.207122030861817	0.04302585332538488	0.7024174193176603	1.2444201876837635	0.036415596551311345	0.6463216972305573	1.4280106216350132	0.04351139831151903	0.7176560133960699	1.5443680998379372	0.799400022653853	0.8323010724990798	1.5870557474657014	0.4470930383698269	0.83325958456727	1.846069562031304	0.18840993760846167	0.8297964167829763	1.7834404343584531	0.02171298398159577	0.848129466856857	1.8200181203523658	0.03850446036332045	0.8855810688040816	1.9245821867024497	0.17603367606504589	0.8288515043274721	1.4926953004453978	1.4284837472099667	0.7618434063059127	1.428422598997829	1.6622319269084347	0.7531994713282579	1.3397752690258882	1.543545004013461	0.7466837380827184	1.560755750622835	1.3455271538431735	0.5859677038915964	1.6188894005462364	1.076629456088686	0.5558518395989713	1.6154805123611735	0.821462407594632	0.5225929097458031	1.4925988249021325	1.3319646789264332	0.9323269298131115	1.4678430291782476	1.0621062956601273	0.9768150547589047	1.3730041447889962	0.8431473813024343	0.9942119947146133
384	12.8	1.5032812116034329	0.8348677261024792	0.7397439829797517	1.4996010881295483	0.8155699639938061	0.6473605651243356	1.3988704082574435	0.4757804003605578	0.6697039023843352	1.3919488894567384	0.11162039142545385	0.6991614892259478	1.2043276081124006	0.04103710896780539	0.7034253526758941	1.245513333883829	0.032669941617991714	0.6468769541171739	1.4271015031146115	0.04427100048392627	0.7152797530348829	1.5088332432205718	0.8054294250911711	0.8309176322241566	1.5196960145284208	0.4549195799116876	0.83375068407607	1.7892628713495315	0.21249648797337936	0.8294988299985407	1.7428769511331403	0.02984273130559399	0.8485088912307368	1.7781605415356148	0.04724727656759594	0.8831883106415463	1.867062925354401	0.2051986979934155	0.8292177420397413	1.4589335338173024	1.4327115908070607	0.7565231030576424	1.395703985923475	1.666446346422077	0.7482836079249467	1.3071444371761982	1.5472392128383536	0.7403494041222783	1.52603964832026	1.3498055816983419	0.581735653127932	1.5758363532646005	1.0778731961117665	0.549828736569173	1.5617478580559023	0.8227474125182959	0.5150251216517813	1.461109902776753	1.33675015856781	0.9264733032410931	1.4463289125113405	1.0658712419961054	0.9732593081586819	1.3619242384545318	0.841879765614417	0.995712538384887
